<svg width="18" height="19" viewBox="0 0 18 19" fill="none" xmlns="http://www.w3.org/2000/svg">
<path d="M17.01 12.8654C15.78 12.8654 14.59 12.6654 13.48 12.3054C13.13 12.1854 12.74 12.2754 12.47 12.5454L10.9 14.5154C8.07 13.1654 5.42 10.6154 4.01 7.68535L5.96 6.02535C6.23 5.74535 6.31 5.35535 6.2 5.00535C5.83 3.89535 5.64 2.70535 5.64 1.47535C5.64 0.935352 5.19 0.485352 4.65 0.485352H1.19C0.65 0.485352 0 0.725352 0 1.47535C0 10.7654 7.73 18.4854 17.01 18.4854C17.72 18.4854 18 17.8554 18 17.3054V13.8554C18 13.3154 17.55 12.8654 17.01 12.8654Z" fill="white"/>
</svg>
