<svg width="24" height="24" viewBox="0 0 24 24" fill="none" xmlns="http://www.w3.org/2000/svg">
<path d="M11.573 0.485354H11.567C9.43472 0.484091 7.34363 1.07244 5.52486 2.18537C3.70608 3.2983 2.23046 4.89246 1.26111 6.79165C0.291748 8.69083 -0.133593 10.8211 0.0321002 12.9469C0.197793 15.0727 0.948066 17.1113 2.19999 18.8374L0.760985 23.1354L5.20799 21.7134C6.71373 22.7054 8.43053 23.3316 10.2213 23.5422C12.0122 23.7528 13.8274 23.5418 15.5222 22.9261C17.2169 22.3104 18.7443 21.307 19.9824 19.9961C21.2205 18.6852 22.1349 17.1029 22.6528 15.3758C23.1707 13.6486 23.2776 11.8243 22.9651 10.0484C22.6526 8.27253 21.9293 6.59431 20.8528 5.1477C19.7764 3.70109 18.3767 2.52613 16.7655 1.71663C15.1543 0.907122 13.3761 0.485479 11.573 0.485354ZM18.305 16.8244C18.0711 17.2478 17.746 17.6139 17.3532 17.8964C16.9605 18.1788 16.5099 18.3704 16.034 18.4574C15.434 18.5864 14.64 18.6884 11.981 17.5864C9.63776 16.4397 7.64744 14.6819 6.21999 12.4984C5.43451 11.4921 4.95729 10.28 4.84599 9.00835C4.83123 8.48161 4.92933 7.9578 5.13372 7.47211C5.33811 6.98641 5.64404 6.55006 6.03099 6.19235C6.35705 5.90665 6.78089 5.75796 7.21399 5.77735C7.35699 5.77735 7.48599 5.78435 7.60199 5.79035C7.94199 5.80435 8.11299 5.82535 8.33699 6.36135C8.61599 7.03435 9.29599 8.69435 9.37699 8.86135C9.43416 8.95435 9.46842 9.05961 9.47694 9.16845C9.48546 9.27729 9.468 9.38659 9.42599 9.48735C9.33078 9.68362 9.20411 9.86299 9.05099 10.0184C8.87999 10.2184 8.71799 10.3654 8.55099 10.5764C8.39499 10.7604 8.21799 10.9564 8.41499 11.2964C8.92332 12.1615 9.5557 12.9476 10.292 13.6294C11.0809 14.3542 11.9997 14.9236 13 15.3074C13.1332 15.3705 13.2823 15.392 13.4279 15.369C13.5735 15.346 13.7088 15.2795 13.816 15.1784C14.1372 14.7947 14.4376 14.3941 14.716 13.9784C14.7984 13.8409 14.929 13.7389 15.0824 13.6923C15.2358 13.6458 15.401 13.6579 15.546 13.7264C15.858 13.8344 17.512 14.6524 17.851 14.8214C18.19 14.9904 18.415 15.0734 18.497 15.2164C18.5883 15.7596 18.522 16.3176 18.306 16.8244H18.305Z" fill="white"/>
</svg>
