<svg width="331" height="120" viewBox="0 0 331 120" fill="none" xmlns="http://www.w3.org/2000/svg">
<rect x="0.5" width="330" height="120" fill="#E85128"/>
<path d="M125.439 99.4932V103H123.389V93.0469H127.271C128.019 93.0469 128.675 93.1836 129.24 93.457C129.81 93.7305 130.247 94.1201 130.553 94.626C130.858 95.1273 131.011 95.6992 131.011 96.3418C131.011 97.3171 130.676 98.0872 130.006 98.6523C129.34 99.2129 128.418 99.4932 127.237 99.4932H125.439ZM125.439 97.832H127.271C127.814 97.832 128.226 97.7044 128.509 97.4492C128.796 97.194 128.939 96.8294 128.939 96.3555C128.939 95.8678 128.796 95.4736 128.509 95.1729C128.222 94.8721 127.825 94.7171 127.319 94.708H125.439V97.832ZM136.452 97.4561C136.183 97.4196 135.946 97.4014 135.741 97.4014C134.994 97.4014 134.504 97.6543 134.271 98.1602V103H132.296V95.6035H134.162L134.217 96.4854C134.613 95.8063 135.162 95.4668 135.864 95.4668C136.083 95.4668 136.288 95.4964 136.479 95.5557L136.452 97.4561ZM136.855 99.2334C136.855 98.4997 136.997 97.8457 137.279 97.2715C137.562 96.6973 137.967 96.2529 138.496 95.9385C139.029 95.624 139.647 95.4668 140.349 95.4668C141.347 95.4668 142.16 95.7721 142.789 96.3828C143.423 96.9935 143.776 97.8229 143.849 98.8711L143.862 99.377C143.862 100.512 143.546 101.423 142.912 102.111C142.279 102.795 141.429 103.137 140.362 103.137C139.296 103.137 138.444 102.795 137.806 102.111C137.172 101.428 136.855 100.498 136.855 99.3223V99.2334ZM138.831 99.377C138.831 100.079 138.963 100.617 139.228 100.99C139.492 101.359 139.87 101.544 140.362 101.544C140.841 101.544 141.215 101.362 141.483 100.997C141.752 100.628 141.887 100.04 141.887 99.2334C141.887 98.5452 141.752 98.012 141.483 97.6338C141.215 97.2555 140.836 97.0664 140.349 97.0664C139.866 97.0664 139.492 97.2555 139.228 97.6338C138.963 98.0075 138.831 98.5885 138.831 99.377ZM144.771 99.2471C144.771 98.0941 145.029 97.1758 145.544 96.4922C146.063 95.8086 146.772 95.4668 147.67 95.4668C148.39 95.4668 148.985 95.7357 149.454 96.2734V92.5H151.437V103H149.652L149.557 102.214C149.064 102.829 148.431 103.137 147.656 103.137C146.786 103.137 146.086 102.795 145.558 102.111C145.034 101.423 144.771 100.468 144.771 99.2471ZM146.747 99.3906C146.747 100.083 146.868 100.614 147.109 100.983C147.351 101.353 147.702 101.537 148.162 101.537C148.773 101.537 149.203 101.28 149.454 100.765V97.8457C149.208 97.3307 148.782 97.0732 148.176 97.0732C147.223 97.0732 146.747 97.8457 146.747 99.3906ZM157.397 102.248C156.91 102.84 156.235 103.137 155.374 103.137C154.581 103.137 153.975 102.909 153.556 102.453C153.141 101.997 152.929 101.33 152.92 100.45V95.6035H154.896V100.382C154.896 101.152 155.246 101.537 155.948 101.537C156.618 101.537 157.078 101.305 157.329 100.84V95.6035H159.312V103H157.452L157.397 102.248ZM163.167 93.7852V95.6035H164.432V97.0527H163.167V100.744C163.167 101.018 163.219 101.214 163.324 101.332C163.429 101.451 163.63 101.51 163.926 101.51C164.145 101.51 164.338 101.494 164.507 101.462V102.959C164.119 103.077 163.721 103.137 163.311 103.137C161.925 103.137 161.219 102.437 161.191 101.038V97.0527H160.111V95.6035H161.191V93.7852H163.167ZM165.02 99.2334C165.02 98.4997 165.161 97.8457 165.443 97.2715C165.726 96.6973 166.132 96.2529 166.66 95.9385C167.193 95.624 167.811 95.4668 168.513 95.4668C169.511 95.4668 170.324 95.7721 170.953 96.3828C171.587 96.9935 171.94 97.8229 172.013 98.8711L172.026 99.377C172.026 100.512 171.71 101.423 171.076 102.111C170.443 102.795 169.593 103.137 168.526 103.137C167.46 103.137 166.608 102.795 165.97 102.111C165.336 101.428 165.02 100.498 165.02 99.3223V99.2334ZM166.995 99.377C166.995 100.079 167.127 100.617 167.392 100.99C167.656 101.359 168.034 101.544 168.526 101.544C169.005 101.544 169.379 101.362 169.647 100.997C169.916 100.628 170.051 100.04 170.051 99.2334C170.051 98.5452 169.916 98.012 169.647 97.6338C169.379 97.2555 169 97.0664 168.513 97.0664C168.03 97.0664 167.656 97.2555 167.392 97.6338C167.127 98.0075 166.995 98.5885 166.995 99.377ZM179.095 93.7852V95.6035H180.359V97.0527H179.095V100.744C179.095 101.018 179.147 101.214 179.252 101.332C179.357 101.451 179.557 101.51 179.854 101.51C180.072 101.51 180.266 101.494 180.435 101.462V102.959C180.047 103.077 179.648 103.137 179.238 103.137C177.853 103.137 177.146 102.437 177.119 101.038V97.0527H176.039V95.6035H177.119V93.7852H179.095ZM184.864 103.137C183.78 103.137 182.896 102.804 182.212 102.139C181.533 101.473 181.193 100.587 181.193 99.4795V99.2881C181.193 98.5452 181.337 97.8822 181.624 97.2988C181.911 96.7109 182.317 96.2598 182.841 95.9453C183.369 95.6263 183.971 95.4668 184.646 95.4668C185.657 95.4668 186.452 95.7858 187.031 96.4238C187.615 97.0618 187.906 97.9665 187.906 99.1377V99.9443H183.196C183.26 100.427 183.451 100.815 183.771 101.106C184.094 101.398 184.502 101.544 184.994 101.544C185.755 101.544 186.35 101.268 186.778 100.717L187.749 101.804C187.453 102.223 187.052 102.551 186.546 102.788C186.04 103.021 185.479 103.137 184.864 103.137ZM184.639 97.0664C184.247 97.0664 183.928 97.1986 183.682 97.4629C183.44 97.7272 183.285 98.1055 183.217 98.5977H185.965V98.4404C185.956 98.0029 185.837 97.6657 185.609 97.4287C185.382 97.1872 185.058 97.0664 184.639 97.0664ZM193.04 100.956C193.04 100.715 192.919 100.525 192.678 100.389C192.441 100.247 192.058 100.122 191.529 100.013C189.77 99.6436 188.891 98.8962 188.891 97.7705C188.891 97.1143 189.162 96.5674 189.704 96.1299C190.251 95.6878 190.964 95.4668 191.844 95.4668C192.783 95.4668 193.532 95.6878 194.093 96.1299C194.658 96.5719 194.94 97.1462 194.94 97.8525H192.965C192.965 97.57 192.874 97.3376 192.691 97.1553C192.509 96.9684 192.224 96.875 191.837 96.875C191.504 96.875 191.247 96.9502 191.064 97.1006C190.882 97.251 190.791 97.4424 190.791 97.6748C190.791 97.8936 190.894 98.0713 191.099 98.208C191.308 98.3402 191.659 98.4564 192.151 98.5566C192.644 98.6523 193.058 98.7617 193.396 98.8848C194.439 99.2676 194.961 99.9307 194.961 100.874C194.961 101.549 194.672 102.095 194.093 102.515C193.514 102.929 192.767 103.137 191.851 103.137C191.231 103.137 190.679 103.027 190.196 102.809C189.718 102.585 189.342 102.282 189.068 101.899C188.795 101.512 188.658 101.095 188.658 100.648H190.531C190.549 100.999 190.679 101.268 190.921 101.455C191.162 101.642 191.486 101.735 191.892 101.735C192.27 101.735 192.555 101.665 192.746 101.523C192.942 101.378 193.04 101.188 193.04 100.956ZM198.604 93.7852V95.6035H199.869V97.0527H198.604V100.744C198.604 101.018 198.657 101.214 198.762 101.332C198.867 101.451 199.067 101.51 199.363 101.51C199.582 101.51 199.776 101.494 199.944 101.462V102.959C199.557 103.077 199.158 103.137 198.748 103.137C197.363 103.137 196.656 102.437 196.629 101.038V97.0527H195.549V95.6035H196.629V93.7852H198.604ZM204.374 103.137C203.289 103.137 202.405 102.804 201.722 102.139C201.043 101.473 200.703 100.587 200.703 99.4795V99.2881C200.703 98.5452 200.847 97.8822 201.134 97.2988C201.421 96.7109 201.826 96.2598 202.351 95.9453C202.879 95.6263 203.481 95.4668 204.155 95.4668C205.167 95.4668 205.962 95.7858 206.541 96.4238C207.124 97.0618 207.416 97.9665 207.416 99.1377V99.9443H202.706C202.77 100.427 202.961 100.815 203.28 101.106C203.604 101.398 204.012 101.544 204.504 101.544C205.265 101.544 205.86 101.268 206.288 100.717L207.259 101.804C206.963 102.223 206.562 102.551 206.056 102.788C205.55 103.021 204.989 103.137 204.374 103.137ZM204.148 97.0664C203.757 97.0664 203.438 97.1986 203.191 97.4629C202.95 97.7272 202.795 98.1055 202.727 98.5977H205.475V98.4404C205.465 98.0029 205.347 97.6657 205.119 97.4287C204.891 97.1872 204.568 97.0664 204.148 97.0664Z" fill="white"/>
<path d="M155.625 70.75C153.562 70.75 151.894 72.4375 151.894 74.5C151.894 76.5625 153.562 78.25 155.625 78.25C157.688 78.25 159.375 76.5625 159.375 74.5C159.375 72.4375 157.688 70.75 155.625 70.75ZM144.375 40.75V44.5H148.125L154.875 58.7313L152.344 63.325C152.044 63.85 151.875 64.4688 151.875 65.125C151.875 67.1875 153.562 68.875 155.625 68.875H178.125V65.125H156.413C156.15 65.125 155.944 64.9188 155.944 64.6563L156 64.4313L157.688 61.375H171.656C173.062 61.375 174.3 60.6063 174.937 59.4438L181.65 47.275C181.8 47.0125 181.875 46.6938 181.875 46.375C181.875 45.3438 181.031 44.5 180 44.5H152.269L150.506 40.75H144.375ZM174.375 70.75C172.312 70.75 170.644 72.4375 170.644 74.5C170.644 76.5625 172.312 78.25 174.375 78.25C176.438 78.25 178.125 76.5625 178.125 74.5C178.125 72.4375 176.438 70.75 174.375 70.75Z" fill="white"/>
<path d="M168.651 15.6202L172.896 13L175.5 17.3014L173.432 16.7949L170.389 28.9886H166.715L164.403 22.067H164.365L162.234 28.9886H157.749L155.5 20.1256H158.895L160.082 24.8279H160.12L162.311 17.544H166.141L168.334 23.9064H168.373L170.35 16.0387L168.651 15.6202Z" fill="white"/>
</svg>
