<svg width="115" height="115" viewBox="0 0 115 115" fill="none" xmlns="http://www.w3.org/2000/svg">
<rect width="115" height="115" fill="#E85128"/>
<path d="M34.6797 83.7461V85.75H33.5078V80.0625H35.7266C36.1536 80.0625 36.5286 80.1406 36.8516 80.2969C37.1771 80.4531 37.4271 80.6758 37.6016 80.9648C37.776 81.2513 37.8633 81.5781 37.8633 81.9453C37.8633 82.5026 37.6719 82.9427 37.2891 83.2656C36.9089 83.5859 36.3815 83.7461 35.707 83.7461H34.6797ZM34.6797 82.7969H35.7266C36.0365 82.7969 36.2721 82.724 36.4336 82.5781C36.5977 82.4323 36.6797 82.224 36.6797 81.9531C36.6797 81.6745 36.5977 81.4492 36.4336 81.2773C36.2695 81.1055 36.043 81.0169 35.7539 81.0117H34.6797V82.7969ZM40.9727 82.582C40.819 82.5612 40.6836 82.5508 40.5664 82.5508C40.1393 82.5508 39.8594 82.6953 39.7266 82.9844V85.75H38.5977V81.5234H39.6641L39.6953 82.0273C39.9219 81.6393 40.2357 81.4453 40.6367 81.4453C40.7617 81.4453 40.8789 81.4622 40.9883 81.4961L40.9727 82.582ZM41.2031 83.5977C41.2031 83.1784 41.2839 82.8047 41.4453 82.4766C41.6068 82.1484 41.8385 81.8945 42.1406 81.7148C42.4453 81.5352 42.7982 81.4453 43.1992 81.4453C43.7695 81.4453 44.2344 81.6198 44.5938 81.9688C44.9557 82.3177 45.1576 82.7917 45.1992 83.3906L45.207 83.6797C45.207 84.3281 45.026 84.849 44.6641 85.2422C44.3021 85.6328 43.8164 85.8281 43.207 85.8281C42.5977 85.8281 42.1107 85.6328 41.7461 85.2422C41.3841 84.8516 41.2031 84.3203 41.2031 83.6484V83.5977ZM42.332 83.6797C42.332 84.0807 42.4076 84.388 42.5586 84.6016C42.7096 84.8125 42.9258 84.918 43.207 84.918C43.4805 84.918 43.694 84.8138 43.8477 84.6055C44.0013 84.3945 44.0781 84.0586 44.0781 83.5977C44.0781 83.2044 44.0013 82.8997 43.8477 82.6836C43.694 82.4674 43.4779 82.3594 43.1992 82.3594C42.9232 82.3594 42.7096 82.4674 42.5586 82.6836C42.4076 82.8971 42.332 83.2292 42.332 83.6797ZM45.7266 83.6055C45.7266 82.9466 45.8737 82.4219 46.168 82.0312C46.4648 81.6406 46.8698 81.4453 47.3828 81.4453C47.7943 81.4453 48.1341 81.599 48.4023 81.9062V79.75H49.5352V85.75H48.5156L48.4609 85.3008C48.1797 85.6523 47.8177 85.8281 47.375 85.8281C46.8776 85.8281 46.4779 85.6328 46.1758 85.2422C45.8763 84.849 45.7266 84.3034 45.7266 83.6055ZM46.8555 83.6875C46.8555 84.0833 46.9245 84.3867 47.0625 84.5977C47.2005 84.8086 47.401 84.9141 47.6641 84.9141C48.013 84.9141 48.2591 84.7669 48.4023 84.4727V82.8047C48.2617 82.5104 48.0182 82.3633 47.6719 82.3633C47.1276 82.3633 46.8555 82.8047 46.8555 83.6875ZM52.9414 85.3203C52.6628 85.6589 52.2773 85.8281 51.7852 85.8281C51.332 85.8281 50.9857 85.6979 50.7461 85.4375C50.5091 85.1771 50.388 84.7956 50.3828 84.293V81.5234H51.5117V84.2539C51.5117 84.694 51.7122 84.9141 52.1133 84.9141C52.4961 84.9141 52.7591 84.7812 52.9023 84.5156V81.5234H54.0352V85.75H52.9727L52.9414 85.3203ZM56.2383 80.4844V81.5234H56.9609V82.3516H56.2383V84.4609C56.2383 84.6172 56.2682 84.7292 56.3281 84.7969C56.388 84.8646 56.5026 84.8984 56.6719 84.8984C56.7969 84.8984 56.9076 84.8893 57.0039 84.8711V85.7266C56.7826 85.7943 56.5547 85.8281 56.3203 85.8281C55.5286 85.8281 55.125 85.4284 55.1094 84.6289V82.3516H54.4922V81.5234H55.1094V80.4844H56.2383ZM57.2969 83.5977C57.2969 83.1784 57.3776 82.8047 57.5391 82.4766C57.7005 82.1484 57.9323 81.8945 58.2344 81.7148C58.5391 81.5352 58.8919 81.4453 59.293 81.4453C59.8633 81.4453 60.3281 81.6198 60.6875 81.9688C61.0495 82.3177 61.2513 82.7917 61.293 83.3906L61.3008 83.6797C61.3008 84.3281 61.1198 84.849 60.7578 85.2422C60.3958 85.6328 59.9102 85.8281 59.3008 85.8281C58.6914 85.8281 58.2044 85.6328 57.8398 85.2422C57.4779 84.8516 57.2969 84.3203 57.2969 83.6484V83.5977ZM58.4258 83.6797C58.4258 84.0807 58.5013 84.388 58.6523 84.6016C58.8034 84.8125 59.0195 84.918 59.3008 84.918C59.5742 84.918 59.7878 84.8138 59.9414 84.6055C60.0951 84.3945 60.1719 84.0586 60.1719 83.5977C60.1719 83.2044 60.0951 82.8997 59.9414 82.6836C59.7878 82.4674 59.5716 82.3594 59.293 82.3594C59.0169 82.3594 58.8034 82.4674 58.6523 82.6836C58.5013 82.8971 58.4258 83.2292 58.4258 83.6797ZM65.3398 80.4844V81.5234H66.0625V82.3516H65.3398V84.4609C65.3398 84.6172 65.3698 84.7292 65.4297 84.7969C65.4896 84.8646 65.6042 84.8984 65.7734 84.8984C65.8984 84.8984 66.0091 84.8893 66.1055 84.8711V85.7266C65.8841 85.7943 65.6562 85.8281 65.4219 85.8281C64.6302 85.8281 64.2266 85.4284 64.2109 84.6289V82.3516H63.5938V81.5234H64.2109V80.4844H65.3398ZM68.6367 85.8281C68.0169 85.8281 67.5117 85.638 67.1211 85.2578C66.7331 84.8776 66.5391 84.3711 66.5391 83.7383V83.6289C66.5391 83.2044 66.6211 82.8255 66.7852 82.4922C66.9492 82.1562 67.181 81.8984 67.4805 81.7188C67.7826 81.5365 68.1263 81.4453 68.5117 81.4453C69.0898 81.4453 69.5443 81.6276 69.875 81.9922C70.2083 82.3568 70.375 82.8737 70.375 83.543V84.0039H67.6836C67.7201 84.2799 67.8294 84.5013 68.0117 84.668C68.1966 84.8346 68.4297 84.918 68.7109 84.918C69.1458 84.918 69.4857 84.7604 69.7305 84.4453L70.2852 85.0664C70.1159 85.306 69.8867 85.4935 69.5977 85.6289C69.3086 85.7617 68.9883 85.8281 68.6367 85.8281ZM68.5078 82.3594C68.2839 82.3594 68.1016 82.4349 67.9609 82.5859C67.8229 82.737 67.7344 82.9531 67.6953 83.2344H69.2656V83.1445C69.2604 82.8945 69.1927 82.7018 69.0625 82.5664C68.9323 82.4284 68.7474 82.3594 68.5078 82.3594ZM73.3086 84.582C73.3086 84.444 73.2396 84.3359 73.1016 84.2578C72.9661 84.1771 72.7474 84.1055 72.4453 84.043C71.4401 83.832 70.9375 83.4049 70.9375 82.7617C70.9375 82.3867 71.0924 82.0742 71.4023 81.8242C71.7148 81.5716 72.1224 81.4453 72.625 81.4453C73.1615 81.4453 73.5898 81.5716 73.9102 81.8242C74.2331 82.0768 74.3945 82.4049 74.3945 82.8086H73.2656C73.2656 82.6471 73.2135 82.5143 73.1094 82.4102C73.0052 82.3034 72.8424 82.25 72.6211 82.25C72.431 82.25 72.2839 82.293 72.1797 82.3789C72.0755 82.4648 72.0234 82.5742 72.0234 82.707C72.0234 82.832 72.082 82.9336 72.1992 83.0117C72.319 83.0872 72.5195 83.1536 72.8008 83.2109C73.082 83.2656 73.319 83.3281 73.5117 83.3984C74.1081 83.6172 74.4062 83.9961 74.4062 84.5352C74.4062 84.9206 74.2409 85.2331 73.9102 85.4727C73.5794 85.7096 73.1523 85.8281 72.6289 85.8281C72.2747 85.8281 71.9596 85.7656 71.6836 85.6406C71.4102 85.513 71.1953 85.3398 71.0391 85.1211C70.8828 84.8997 70.8047 84.6615 70.8047 84.4062H71.875C71.8854 84.6068 71.9596 84.7604 72.0977 84.8672C72.2357 84.974 72.4206 85.0273 72.6523 85.0273C72.8685 85.0273 73.0312 84.987 73.1406 84.9062C73.2526 84.8229 73.3086 84.7148 73.3086 84.582ZM76.4883 80.4844V81.5234H77.2109V82.3516H76.4883V84.4609C76.4883 84.6172 76.5182 84.7292 76.5781 84.7969C76.638 84.8646 76.7526 84.8984 76.9219 84.8984C77.0469 84.8984 77.1576 84.8893 77.2539 84.8711V85.7266C77.0326 85.7943 76.8047 85.8281 76.5703 85.8281C75.7786 85.8281 75.375 85.4284 75.3594 84.6289V82.3516H74.7422V81.5234H75.3594V80.4844H76.4883ZM79.7852 85.8281C79.1654 85.8281 78.6602 85.638 78.2695 85.2578C77.8815 84.8776 77.6875 84.3711 77.6875 83.7383V83.6289C77.6875 83.2044 77.7695 82.8255 77.9336 82.4922C78.0977 82.1562 78.3294 81.8984 78.6289 81.7188C78.931 81.5365 79.2747 81.4453 79.6602 81.4453C80.2383 81.4453 80.6927 81.6276 81.0234 81.9922C81.3568 82.3568 81.5234 82.8737 81.5234 83.543V84.0039H78.832C78.8685 84.2799 78.9779 84.5013 79.1602 84.668C79.3451 84.8346 79.5781 84.918 79.8594 84.918C80.2943 84.918 80.6341 84.7604 80.8789 84.4453L81.4336 85.0664C81.2643 85.306 81.0352 85.4935 80.7461 85.6289C80.457 85.7617 80.1367 85.8281 79.7852 85.8281ZM79.6562 82.3594C79.4323 82.3594 79.25 82.4349 79.1094 82.5859C78.9714 82.737 78.8828 82.9531 78.8438 83.2344H80.4141V83.1445C80.4089 82.8945 80.3411 82.7018 80.2109 82.5664C80.0807 82.4284 79.8958 82.3594 79.6562 82.3594Z" fill="#F5F5F5"/>
<path d="M51.3855 71.5627C50.0678 71.5627 49.0016 72.6408 49.0016 73.9585C49.0016 75.2762 50.0678 76.3543 51.3855 76.3543C52.7032 76.3543 53.7813 75.2762 53.7813 73.9585C53.7813 72.6408 52.7032 71.5627 51.3855 71.5627ZM44.198 52.396V54.7918H46.5938L50.9063 63.884L49.2891 66.8189C49.0975 67.1543 48.9897 67.5496 48.9897 67.9689C48.9897 69.2866 50.0678 70.3647 51.3855 70.3647H65.7605V67.9689H51.8886C51.7209 67.9689 51.5891 67.8371 51.5891 67.6694L51.6251 67.5257L52.7032 65.5731H61.6277C62.5261 65.5731 63.3167 65.0819 63.724 64.3392L68.0126 56.5647C68.1084 56.397 68.1563 56.1934 68.1563 55.9897C68.1563 55.3309 67.6173 54.7918 66.9584 54.7918H49.2412L48.1152 52.396H44.198ZM63.3647 71.5627C62.047 71.5627 60.9808 72.6408 60.9808 73.9585C60.9808 75.2762 62.047 76.3543 63.3647 76.3543C64.6824 76.3543 65.7605 75.2762 65.7605 73.9585C65.7605 72.6408 64.6824 71.5627 63.3647 71.5627Z" fill="#F5F5F5"/>
<path d="M60.6032 29.511L64.6707 27L67.1667 31.1221L65.1846 30.6368L62.2682 42.3224H58.7479L56.5322 35.6892H56.4955L54.4534 42.3224H50.1556L48 33.8287H51.2534L52.3912 38.3351H52.428L54.5268 31.3547H58.1973L60.2995 37.452H60.3362L62.2315 29.9121L60.6032 29.511Z" fill="#F5F5F5"/>
</svg>
