<svg width="180" height="40" viewBox="0 0 180 40" fill="none" xmlns="http://www.w3.org/2000/svg">
<path d="M26.557 5.29119L35.1281 0L40.3875 8.68608L36.2109 7.66335L30.0656 32.2869H22.6477L17.9789 18.3097H17.9016L13.5984 32.2869H4.54219L0 14.3892H6.85547L9.25312 23.8849H9.33047L13.7531 9.17614H21.4875L25.9172 22.0241H25.9945L29.9883 6.13636L26.557 5.29119Z" fill="#E85128"/>
<path d="M59.7164 32.2444V9.59522H53.0367V12.0029H52.9523C51.6234 9.75857 48.8883 8.81396 46.4273 8.81396C39.7055 8.81396 35.1914 14.2827 35.1914 20.8949C35.1914 27.635 39.5437 33.0185 46.4273 33.0185C48.8461 33.0185 51.743 32.1236 52.9523 29.7941H53.0367V32.2444H59.7164ZM53.0367 20.8949C53.0367 24.162 50.6953 26.6904 47.4328 26.6904C44.2969 26.6904 41.8781 24.1194 41.8781 20.9802C41.8781 17.7557 44.1352 15.1421 47.3977 15.1421C50.6602 15.1421 53.0367 17.5924 53.0367 20.8949Z" fill="#E85128"/>
<path d="M85.8938 21.1435C85.8938 14.5739 81.907 8.81396 74.9813 8.81396C72.2391 8.81396 69.743 9.87931 68.0133 12.081H67.8938V9.59522H61.6078V39.7941H68.2945V30.206C70.1086 32.2018 72.3656 33.0185 75.0234 33.0185C81.5414 33.0185 85.8938 27.4716 85.8938 21.1435ZM79.207 20.9375C79.207 24.1194 76.7953 26.6904 73.6102 26.6904C70.432 26.6904 68.0133 24.1194 68.0133 20.9375C68.0133 17.7131 70.3899 15.1421 73.6102 15.1421C76.8305 15.1421 79.207 17.7131 79.207 20.9375Z" fill="#E85128"/>
<path d="M94.3523 32.2443V25.3054H87.3844V32.2443H94.3523Z" fill="#E85128"/>
<path d="M106.144 32.6704C104.33 32.6704 102.79 32.3579 101.531 31.7329C100.308 31.115 99.3727 30.4048 98.7258 29.6164C98.1141 28.821 97.8047 28.1818 97.8047 27.7059C97.8047 27.4502 97.9031 27.2514 98.1 27.1093C98.2969 26.9389 98.5078 26.8536 98.7258 26.8536H99.3586C99.5555 26.8536 99.7031 26.8962 99.8156 26.9815C99.9563 27.0383 100.111 27.1803 100.28 27.4076C100.891 28.2812 101.63 28.9772 102.495 29.4886C103.395 29.9644 104.604 30.2059 106.144 30.2059C107.873 30.2059 109.266 29.8792 110.327 29.2329C111.389 28.5511 111.923 27.5923 111.923 26.3423C111.923 25.5823 111.698 24.9573 111.248 24.4744C110.834 23.9985 110.13 23.5866 109.153 23.2457C108.204 22.8764 106.784 22.4644 104.885 22.017C102.403 21.4488 100.695 20.6676 99.7734 19.6803C98.8805 18.686 98.4375 17.4289 98.4375 15.9019C98.4375 14.8579 98.7117 13.8636 99.2742 12.9332C99.8578 11.9957 100.709 11.2357 101.827 10.6391C102.973 10.0426 104.344 9.74426 105.933 9.74426C107.606 9.74426 109.02 10.0426 110.159 10.6391C111.333 11.2073 112.198 11.8678 112.76 12.6349C113.344 13.3948 113.639 14.0198 113.639 14.5028C113.639 14.7585 113.541 14.9715 113.344 15.1349C113.175 15.2769 112.964 15.348 112.718 15.348H112.085C111.698 15.348 111.389 15.1633 111.164 14.8011C110.609 13.9488 109.969 13.3096 109.237 12.8906C108.541 12.436 107.438 12.2088 105.933 12.2088C104.316 12.2088 103.085 12.5497 102.248 13.2244C101.412 13.9062 100.99 14.8011 100.99 15.9019C100.99 16.5838 101.159 17.1448 101.496 17.5994C101.827 18.0539 102.452 18.4801 103.38 18.8707C104.302 19.24 105.638 19.6235 107.395 20.0213C109.997 20.6107 111.825 21.4062 112.887 22.3934C113.941 23.3877 114.476 24.7016 114.476 26.3423C114.476 27.507 114.152 28.5653 113.512 29.5312C112.873 30.49 111.923 31.257 110.665 31.8181C109.406 32.3863 107.902 32.6704 106.144 32.6704Z" fill="#E85128"/>
<path d="M124.657 32.2443C122.597 32.2443 121.127 31.6193 120.262 30.3764C119.398 29.1051 118.962 27.3651 118.962 25.1562V12.6349H115.699C115.418 12.6349 115.193 12.5497 115.024 12.3793C114.862 12.2088 114.778 11.9815 114.778 11.6974V11.108C114.778 10.8239 114.862 10.5966 115.024 10.4261C115.193 10.2557 115.418 10.1705 115.699 10.1705H118.962V3.03977C118.962 2.75568 119.046 2.52841 119.215 2.35795C119.384 2.1946 119.609 2.10938 119.883 2.10938H120.6C120.874 2.10938 121.099 2.1946 121.268 2.35795C121.437 2.52841 121.521 2.75568 121.521 3.03977V10.1705H126.71C126.991 10.1705 127.216 10.2557 127.378 10.4261C127.547 10.5966 127.631 10.8239 127.631 11.108V11.6974C127.631 11.9815 127.547 12.2088 127.378 12.3793C127.216 12.5497 126.991 12.6349 126.71 12.6349H121.521V24.9858C121.521 26.5696 121.767 27.777 122.273 28.5937C122.801 29.3892 123.666 29.7798 124.868 29.7798H127.132C127.413 29.7798 127.631 29.8651 127.8 30.0355C127.969 30.206 128.053 30.4332 128.053 30.7173V31.3139C128.053 31.5909 127.969 31.8182 127.8 31.9886C127.631 32.1591 127.413 32.2443 127.132 32.2443H124.657Z" fill="#E85128"/>
<path d="M138.157 32.6704C135.26 32.6704 132.996 31.7755 131.379 29.9928C129.783 28.1818 128.946 25.8522 128.862 22.99L128.82 21.2073L128.862 19.4247C128.946 16.5695 129.783 14.2471 131.379 12.4644C132.996 10.6534 135.26 9.74426 138.157 9.74426C141.061 9.74426 143.311 10.6534 144.9 12.4644C146.524 14.2471 147.375 16.5695 147.459 19.4247C147.488 19.7088 147.502 20.3053 147.502 21.2073C147.502 22.1164 147.488 22.7059 147.459 22.99C147.375 25.8522 146.524 28.1818 144.9 29.9928C143.311 31.7755 141.061 32.6704 138.157 32.6704ZM138.157 30.2059C140.14 30.2059 141.736 29.5738 142.931 28.2954C144.162 26.9957 144.816 25.1562 144.9 22.7769C144.928 22.4928 144.942 21.9744 144.942 21.2073C144.942 20.4474 144.928 19.9218 144.9 19.6377C144.816 17.2585 144.162 15.4332 142.931 14.1619C141.736 12.8622 140.14 12.2088 138.157 12.2088C136.181 12.2088 134.571 12.8622 133.348 14.1619C132.145 15.4332 131.498 17.2585 131.421 19.6377L131.379 21.2073L131.421 22.7769C131.498 25.1562 132.145 26.9957 133.348 28.2954C134.571 29.5738 136.181 30.2059 138.157 30.2059Z" fill="#E85128"/>
<path d="M151.629 32.2443C151.348 32.2443 151.13 32.159 150.961 31.9886C150.792 31.8181 150.708 31.5909 150.708 31.3139V11.1505C150.708 10.8664 150.792 10.6392 150.961 10.4687C151.13 10.2698 151.348 10.1704 151.629 10.1704H152.297C152.578 10.1704 152.803 10.2698 152.972 10.4687C153.162 10.6392 153.26 10.8664 153.26 11.1505V13.1036C154.266 11.1505 156.164 10.1704 158.955 10.1704H160.509C160.791 10.1704 161.009 10.2556 161.177 10.4261C161.346 10.5965 161.43 10.8238 161.43 11.1079V11.6974C161.43 11.9815 161.346 12.2088 161.177 12.3792C161.009 12.5497 160.791 12.6349 160.509 12.6349H158.709C157.029 12.6349 155.707 13.1321 154.73 14.1193C153.752 15.1065 153.26 16.4559 153.26 18.1534V31.3139C153.26 31.5909 153.162 31.8181 152.972 31.9886C152.803 32.159 152.578 32.2443 152.297 32.2443H151.629Z" fill="#E85128"/>
<path d="M170.346 32.6704C167.695 32.6704 165.558 31.7897 163.941 30.0355C162.323 28.2528 161.395 25.8806 161.177 22.9048L161.135 21.2073L161.177 19.5099C161.395 16.5695 162.309 14.2045 163.898 12.4218C165.516 10.6391 167.667 9.74426 170.346 9.74426C173.25 9.74426 175.514 10.7244 177.131 12.6775C178.777 14.6306 179.599 17.3011 179.599 20.696V21.3352C179.599 21.6193 179.501 21.8465 179.311 22.017C179.142 22.1874 178.917 22.2727 178.636 22.2727H163.73V22.6917C163.786 24.0269 164.081 25.2698 164.609 26.4275C165.171 27.5639 165.938 28.4801 166.915 29.1903C167.892 29.865 169.031 30.2059 170.346 30.2059C171.879 30.2059 173.123 29.9076 174.073 29.3181C175.05 28.6931 175.746 28.0681 176.168 27.4502C176.421 27.1093 176.604 26.8962 176.709 26.811C176.85 26.7258 177.089 26.6832 177.427 26.6832H178.095C178.348 26.6832 178.559 26.7542 178.72 26.8962C178.889 27.0383 178.973 27.223 178.973 27.4502C178.973 28.0397 178.594 28.7641 177.841 29.6164C177.117 30.4332 176.098 31.1576 174.783 31.7755C173.475 32.3721 171.991 32.6704 170.346 32.6704ZM177.047 19.8934V19.723C177.047 17.5426 176.435 15.7457 175.205 14.3323C174.002 12.919 172.385 12.2088 170.346 12.2088C168.307 12.2088 166.69 12.919 165.488 14.3323C164.313 15.7457 163.73 17.5426 163.73 19.723V19.8934H177.047Z" fill="#E85128"/>
</svg>
