<svg width="101" height="23" viewBox="0 0 101 23" fill="none" xmlns="http://www.w3.org/2000/svg">
<path d="M14.8757 2.96382L19.6768 0L22.6227 4.86544L20.2833 4.29257L16.841 18.0853H12.6859L10.0707 10.256H10.0274L7.61706 18.0853H2.54427L0 8.06H3.84004L5.18307 13.379H5.22639L7.70371 5.13994H12.0361L14.5173 12.3367H14.5606L16.7977 3.43724L14.8757 2.96382Z" fill="white"/>
<path d="M33.4512 18.0616V5.37487H29.7097V6.7235H29.6624C28.918 5.46637 27.3859 4.93726 26.0075 4.93726C22.2423 4.93726 19.7137 8.00053 19.7137 11.7043C19.7137 15.4797 22.1517 18.4952 26.0075 18.4952C27.3623 18.4952 28.985 17.994 29.6624 16.6891H29.7097V18.0616H33.4512ZM29.7097 11.7043C29.7097 13.5343 28.3981 14.9506 26.5707 14.9506C24.8141 14.9506 23.4593 13.5104 23.4593 11.752C23.4593 9.94591 24.7235 8.4819 26.551 8.4819C28.3784 8.4819 29.7097 9.85441 29.7097 11.7043Z" fill="white"/>
<path d="M48.1133 11.8436C48.1133 8.16365 45.8802 4.93726 42.0008 4.93726C40.4648 4.93726 39.0666 5.534 38.0977 6.76727H38.0308V5.37487H34.5098V22.2905H38.2553V16.9198C39.2714 18.0377 40.5357 18.4952 42.0244 18.4952C45.6754 18.4952 48.1133 15.3882 48.1133 11.8436ZM44.3678 11.7282C44.3678 13.5105 43.0169 14.9506 41.2328 14.9506C39.4526 14.9506 38.0977 13.5105 38.0977 11.7282C38.0977 9.92205 39.429 8.48191 41.2328 8.48191C43.0366 8.48191 44.3678 9.92205 44.3678 11.7282Z" fill="white"/>
<path d="M52.8502 18.0613V14.1746H48.9471V18.0613H52.8502Z" fill="white"/>
<path d="M59.4563 18.2998C58.4402 18.2998 57.5777 18.1247 56.8727 17.7746C56.1874 17.4285 55.6636 17.0307 55.3012 16.5891C54.9586 16.1435 54.7853 15.7855 54.7853 15.5189C54.7853 15.3757 54.8404 15.2643 54.9507 15.1848C55.061 15.0893 55.1791 15.0415 55.3012 15.0415H55.6557C55.766 15.0415 55.8487 15.0654 55.9117 15.1132C55.9905 15.145 56.0771 15.2246 56.1716 15.3519C56.5143 15.8412 56.9278 16.2311 57.4123 16.5175C57.9164 16.784 58.5938 16.9193 59.4563 16.9193C60.4252 16.9193 61.205 16.7363 61.7997 16.3743C62.3944 15.9924 62.6938 15.4553 62.6938 14.7551C62.6938 14.3294 62.5677 13.9794 62.3157 13.7088C62.0833 13.4423 61.6895 13.2115 61.142 13.0206C60.6103 12.8137 59.8147 12.583 58.7513 12.3323C57.3611 12.0141 56.404 11.5765 55.8881 11.0235C55.3879 10.4665 55.1397 9.76238 55.1397 8.90705C55.1397 8.32224 55.2933 7.76528 55.6084 7.24413C55.9353 6.719 56.4119 6.29332 57.0381 5.95915C57.6801 5.62497 58.4481 5.45789 59.3382 5.45789C60.2755 5.45789 61.0672 5.62497 61.7052 5.95915C62.3629 6.27741 62.8474 6.64739 63.1625 7.07704C63.4893 7.50272 63.6548 7.85281 63.6548 8.12333C63.6548 8.26655 63.5996 8.3859 63.4893 8.4774C63.3948 8.55696 63.2767 8.59674 63.1388 8.59674H62.7844C62.5677 8.59674 62.3944 8.49331 62.2684 8.29042C61.9573 7.81302 61.5989 7.45498 61.1893 7.22026C60.7994 6.96565 60.181 6.83835 59.3382 6.83835C58.4323 6.83835 57.7431 7.0293 57.2744 7.40724C56.8057 7.78916 56.5694 8.29042 56.5694 8.90705C56.5694 9.28896 56.6639 9.60325 56.853 9.85786C57.0381 10.1125 57.3886 10.3512 57.9085 10.57C58.4244 10.7768 59.1728 10.9917 60.1574 11.2144C61.6146 11.5446 62.6386 11.9902 63.2333 12.5432C63.8241 13.1002 64.1234 13.8361 64.1234 14.7551C64.1234 15.4076 63.9423 16.0003 63.5839 16.5414C63.2255 17.0784 62.6938 17.5081 61.9888 17.8224C61.2838 18.1406 60.441 18.2998 59.4563 18.2998Z" fill="white"/>
<path d="M69.8267 18.061C68.6727 18.061 67.8496 17.7109 67.3651 17.0147C66.8807 16.3026 66.6365 15.3279 66.6365 14.0907V7.07696H64.809C64.6515 7.07696 64.5255 7.02922 64.4309 6.93374C64.3404 6.83826 64.2931 6.71096 64.2931 6.55183V6.22163C64.2931 6.0625 64.3404 5.93519 64.4309 5.83972C64.5255 5.74424 64.6515 5.6965 64.809 5.6965H66.6365V1.70231C66.6365 1.54318 66.6838 1.41587 66.7783 1.32039C66.8728 1.22889 66.9988 1.18115 67.1524 1.18115H67.5542C67.7078 1.18115 67.8338 1.22889 67.9283 1.32039C68.0228 1.41587 68.0701 1.54318 68.0701 1.70231V5.6965H70.9767C71.1343 5.6965 71.2603 5.74424 71.3509 5.83972C71.4454 5.93519 71.4927 6.0625 71.4927 6.22163V6.55183C71.4927 6.71096 71.4454 6.83826 71.3509 6.93374C71.2603 7.02922 71.1343 7.07696 70.9767 7.07696H68.0701V13.9952C68.0701 14.8823 68.208 15.5586 68.4915 16.0161C68.7869 16.4617 69.2713 16.6805 69.9448 16.6805H71.213C71.3706 16.6805 71.4927 16.7283 71.5872 16.8237C71.6817 16.9192 71.729 17.0465 71.729 17.2057V17.5398C71.729 17.695 71.6817 17.8223 71.5872 17.9178C71.4927 18.0132 71.3706 18.061 71.213 18.061H69.8267Z" fill="white"/>
<path d="M77.3867 18.2998C75.764 18.2998 74.4958 17.7985 73.59 16.7999C72.6959 15.7855 72.2273 14.4806 72.18 12.8774L72.1564 11.8788L72.18 10.8803C72.2273 9.28101 72.6959 7.98011 73.59 6.98157C74.4958 5.96711 75.764 5.45789 77.3867 5.45789C79.0133 5.45789 80.2736 5.96711 81.1637 6.98157C82.0735 7.98011 82.5501 9.28101 82.5973 10.8803C82.6131 11.0394 82.621 11.3736 82.621 11.8788C82.621 12.388 82.6131 12.7182 82.5973 12.8774C82.5501 14.4806 82.0735 15.7855 81.1637 16.7999C80.2736 17.7985 79.0133 18.2998 77.3867 18.2998ZM77.3867 16.9193C78.4974 16.9193 79.3914 16.5652 80.0609 15.8491C80.7502 15.1211 81.1165 14.0907 81.1637 12.758C81.1795 12.5989 81.1874 12.3085 81.1874 11.8788C81.1874 11.4531 81.1795 11.1588 81.1637 10.9996C81.1165 9.6669 80.7502 8.64448 80.0609 7.93237C79.3914 7.20435 78.4974 6.83835 77.3867 6.83835C76.28 6.83835 75.3781 7.20435 74.6928 7.93237C74.0193 8.64448 73.6569 9.6669 73.6136 10.9996L73.59 11.8788L73.6136 12.758C73.6569 14.0907 74.0193 15.1211 74.6928 15.8491C75.3781 16.5652 76.28 16.9193 77.3867 16.9193Z" fill="white"/>
<path d="M84.9353 18.061C84.7777 18.061 84.6556 18.0133 84.5611 17.9178C84.4666 17.8223 84.4193 17.695 84.4193 17.5399V6.24553C84.4193 6.0864 84.4666 5.9591 84.5611 5.86362C84.6556 5.75223 84.7777 5.69653 84.9353 5.69653H85.3094C85.467 5.69653 85.593 5.75223 85.6875 5.86362C85.7938 5.9591 85.849 6.0864 85.849 6.24553V7.33956C86.4122 6.24553 87.4756 5.69653 89.0392 5.69653H89.9096C90.0671 5.69653 90.1892 5.74427 90.2837 5.83975C90.3783 5.93523 90.4255 6.06253 90.4255 6.22167V6.55186C90.4255 6.71099 90.3783 6.8383 90.2837 6.93378C90.1892 7.02926 90.0671 7.077 89.9096 7.077H88.9013C87.96 7.077 87.2196 7.35547 86.6721 7.90845C86.1247 8.46143 85.849 9.21731 85.849 10.1681V17.5399C85.849 17.695 85.7938 17.8223 85.6875 17.9178C85.593 18.0133 85.467 18.061 85.3094 18.061H84.9353Z" fill="white"/>
<path d="M95.4169 18.2998C93.9321 18.2998 92.7348 17.8065 91.8289 16.8238C90.9231 15.8253 90.4032 14.4965 90.2811 12.8296L90.2574 11.8788L90.2811 10.928C90.4032 9.28101 90.9152 7.95624 91.8053 6.95769C92.7111 5.95915 93.9163 5.45789 95.4169 5.45789C97.0435 5.45789 98.3117 6.00689 99.2175 7.10091C100.139 8.19494 100.6 9.69077 100.6 11.5924V11.9504C100.6 12.1096 100.545 12.2369 100.438 12.3323C100.344 12.4278 100.218 12.4756 100.06 12.4756H91.7107V12.7103C91.7423 13.4582 91.9077 14.1544 92.2031 14.8029C92.5181 15.4394 92.9474 15.9526 93.4949 16.3504C94.0423 16.7283 94.6804 16.9193 95.4169 16.9193C96.2755 16.9193 96.9726 16.7522 97.5043 16.422C98.0517 16.0719 98.4416 15.7218 98.6779 15.3757C98.8197 15.1848 98.9221 15.0654 98.9812 15.0177C99.06 14.9699 99.1939 14.9461 99.3829 14.9461H99.7571C99.8989 14.9461 100.017 14.9859 100.108 15.0654C100.202 15.145 100.249 15.2484 100.249 15.3757C100.249 15.7059 100.037 16.1117 99.6153 16.5891C99.2096 17.0466 98.6386 17.4524 97.9021 17.7985C97.1695 18.1327 96.3385 18.2998 95.4169 18.2998ZM99.1703 11.1428V11.0474C99.1703 9.82603 98.8276 8.81953 98.1384 8.02785C97.4649 7.23617 96.559 6.83835 95.4169 6.83835C94.2747 6.83835 93.3689 7.23617 92.6954 8.02785C92.0376 8.81953 91.7107 9.82603 91.7107 11.0474V11.1428H99.1703Z" fill="white"/>
</svg>
