<svg width="26" height="26" viewBox="0 0 26 26" fill="none" xmlns="http://www.w3.org/2000/svg">
<path d="M7.58337 19.5001C6.39171 19.5001 5.42754 20.4751 5.42754 21.6667C5.42754 22.8584 6.39171 23.8334 7.58337 23.8334C8.77504 23.8334 9.75004 22.8584 9.75004 21.6667C9.75004 20.4751 8.77504 19.5001 7.58337 19.5001ZM1.08337 2.16675V4.33341H3.25004L7.15004 12.5559L5.68754 15.2101C5.51421 15.5134 5.41671 15.8709 5.41671 16.2501C5.41671 17.4417 6.39171 18.4167 7.58337 18.4167H20.5834V16.2501H8.03837C7.88671 16.2501 7.76754 16.1309 7.76754 15.9792L7.80004 15.8492L8.77504 14.0834H16.8459C17.6584 14.0834 18.3734 13.6392 18.7417 12.9676L22.62 5.93675C22.7067 5.78508 22.75 5.60091 22.75 5.41675C22.75 4.82091 22.2625 4.33341 21.6667 4.33341H5.64421L4.62587 2.16675H1.08337ZM18.4167 19.5001C17.225 19.5001 16.2609 20.4751 16.2609 21.6667C16.2609 22.8584 17.225 23.8334 18.4167 23.8334C19.6084 23.8334 20.5834 22.8584 20.5834 21.6667C20.5834 20.4751 19.6084 19.5001 18.4167 19.5001Z" fill="#E85128"/>
</svg>
