<svg width="19" height="23" viewBox="0 0 19 23" fill="none" xmlns="http://www.w3.org/2000/svg">
<path d="M9.24404 10.839C9.95719 10.8488 10.6648 10.713 11.3237 10.44C11.9826 10.1669 12.5789 9.76236 13.076 9.25099C13.5872 8.75373 13.9916 8.15743 14.2645 7.49855C14.5374 6.83967 14.673 6.13206 14.663 5.41899C14.6729 4.70584 14.5371 3.99818 14.264 3.3393C13.991 2.68042 13.5864 2.08416 13.075 1.58699C12.5719 1.08376 11.9746 0.684572 11.3172 0.412223C10.6598 0.139873 9.95514 -0.000305176 9.24355 -0.000305176C8.53195 -0.000305176 7.82732 0.139873 7.16991 0.412223C6.51249 0.684572 5.91517 1.08376 5.41205 1.58699C4.9008 2.08404 4.49629 2.68014 4.22325 3.33884C3.95021 3.99754 3.81437 4.705 3.82404 5.41799C3.81424 6.13114 3.95001 6.83879 4.22305 7.49767C4.4961 8.15655 4.90068 8.75281 5.41205 9.24999C5.90917 9.76149 6.5054 10.1662 7.16428 10.4394C7.82315 10.7126 8.53083 10.8486 9.24404 10.839ZM6.34405 2.51999C6.7248 2.13901 7.17688 1.83679 7.67448 1.63059C8.17207 1.42439 8.70542 1.31826 9.24404 1.31826C9.78267 1.31826 10.316 1.42439 10.8136 1.63059C11.3112 1.83679 11.7633 2.13901 12.144 2.51999C12.5331 2.89455 12.8406 3.34553 13.0471 3.84458C13.2536 4.34364 13.3547 4.88 13.344 5.41999C13.3547 5.95997 13.2536 6.49634 13.0471 6.99539C12.8406 7.49445 12.5331 7.94542 12.144 8.31999C11.7633 8.70096 11.3112 9.00319 10.8136 9.20938C10.316 9.41558 9.78267 9.52171 9.24404 9.52171C8.70542 9.52171 8.17207 9.41558 7.67448 9.20938C7.17688 9.00319 6.7248 8.70096 6.34405 8.31999C5.9549 7.94545 5.64741 7.49449 5.4409 6.99543C5.23439 6.49636 5.13332 5.95998 5.14404 5.41999C5.13332 4.87999 5.23439 4.34361 5.4409 3.84455C5.64741 3.34548 5.9549 2.89452 6.34405 2.51999Z" fill="#363636"/>
<path d="M18.726 17.301C18.6908 16.824 18.6301 16.3494 18.544 15.879C18.4588 15.3955 18.3419 14.9181 18.194 14.45C18.0445 13.9865 17.8475 13.5398 17.606 13.117C17.3683 12.691 17.0699 12.3019 16.72 11.962C16.3515 11.6154 15.9192 11.3437 15.447 11.162C14.9288 10.9623 14.3774 10.8625 13.822 10.868C13.4978 10.9028 13.1913 11.0329 12.941 11.242C12.677 11.414 12.368 11.613 12.023 11.834C11.6505 12.0566 11.2518 12.2323 10.836 12.357C9.89453 12.6689 8.87752 12.6689 7.93603 12.357C7.52058 12.2324 7.1222 12.0567 6.75003 11.834C6.40903 11.616 6.10003 11.417 5.83203 11.242C5.5821 11.0331 5.27587 10.9029 4.95203 10.868C4.39665 10.8624 3.84524 10.9621 3.32703 11.162C2.85482 11.3435 2.42245 11.6153 2.05403 11.962C1.70421 12.3019 1.40574 12.691 1.16803 13.117C0.925503 13.5404 0.727448 13.9878 0.577026 14.452C0.429241 14.9201 0.312323 15.3975 0.227026 15.881C0.140827 16.3513 0.080072 16.826 0.0450257 17.303C0.0150257 17.733 2.57206e-05 18.18 2.57206e-05 18.632C-0.0232141 19.1546 0.0635831 19.6764 0.254796 20.1634C0.44601 20.6503 0.737376 21.0918 1.11003 21.459C1.88803 22.1703 2.91572 22.5452 3.96903 22.502H14.8C15.8533 22.5452 16.881 22.1703 17.659 21.459C18.0317 21.0918 18.3231 20.6504 18.5143 20.1634C18.7056 19.6764 18.7923 19.1546 18.769 18.632C18.769 18.179 18.754 17.732 18.724 17.303L18.726 17.301ZM16.753 20.501C16.4888 20.7372 16.1806 20.9189 15.8459 21.0356C15.5113 21.1523 15.1568 21.2017 14.803 21.181H3.96903C3.61529 21.2019 3.2609 21.1526 2.92625 21.0361C2.59161 20.9196 2.28329 20.7381 2.01903 20.502C1.77695 20.2572 1.58942 19.9639 1.46878 19.6414C1.34813 19.3189 1.2971 18.9746 1.31903 18.631C1.31903 18.209 1.33303 17.793 1.36103 17.393C1.39301 16.9636 1.44809 16.5364 1.52603 16.113C1.60071 15.6867 1.70326 15.2658 1.83303 14.853C1.95466 14.4762 2.11485 14.1129 2.31103 13.769C2.48572 13.4547 2.705 13.1674 2.96203 12.916C3.20757 12.6871 3.49523 12.5081 3.80903 12.389C4.14066 12.2621 4.49199 12.1944 4.84703 12.189C4.89303 12.214 4.97503 12.26 5.10903 12.347C5.38003 12.524 5.69203 12.725 6.03803 12.947C6.5049 13.2304 7.00547 13.4541 7.52803 13.613C8.73436 14.0111 10.0367 14.0111 11.243 13.613C11.7659 13.4541 12.2668 13.2304 12.734 12.947C13.087 12.721 13.391 12.525 13.662 12.347C13.795 12.26 13.877 12.213 13.924 12.189C14.2794 12.1943 14.6311 12.262 14.963 12.389C15.2766 12.508 15.5643 12.6866 15.81 12.915C16.0672 13.1666 16.2865 13.4543 16.461 13.769C16.6573 14.1128 16.8175 14.4761 16.939 14.853C17.0692 15.2658 17.1721 15.6867 17.247 16.113C17.3248 16.5367 17.3799 16.9643 17.412 17.394C17.44 17.794 17.454 18.208 17.454 18.631C17.476 18.9746 17.4249 19.3189 17.3043 19.6414C17.1836 19.9639 16.9961 20.2572 16.754 20.502L16.753 20.501Z" fill="#363636"/>
</svg>
